<?xml version="1.0" encoding="utf-8"?>
<!-- Generator: Adobe Illustrator 27.8.1, SVG Export Plug-In . SVG Version: 6.00 Build 0)  -->
<svg version="1.1" id="Layer_1" xmlns="http://www.w3.org/2000/svg" xmlns:xlink="http://www.w3.org/1999/xlink" x="0px" y="0px"
	 viewBox="0 0 1544 308.6" style="enable-background:new 0 0 1544 308.6;" xml:space="preserve">
<style type="text/css">
	.st0{fill:url(#SVGID_1_);}
	.st1{fill:url(#SVGID_00000064323615983276959680000002325896588655189693_);}
	.st2{fill:url(#SVGID_00000129923512173776214680000011889000250509180580_);}
	.st3{fill:url(#SVGID_00000003065794913161053200000002529642097252681614_);}
	.st4{fill:url(#SVGID_00000014623534655472085490000011357486249440126114_);}
	.st5{fill:url(#SVGID_00000158023565221513185650000004589272131042286998_);}
	.st6{fill:url(#SVGID_00000183928616803996654260000007626033608180236702_);}
	.st7{fill:url(#SVGID_00000095329370774602520030000000465886632973383052_);}
	.st8{fill:url(#SVGID_00000157272548973555051810000004473208822496724918_);}
	.st9{fill:url(#SVGID_00000173138983590016793340000001521792012684997011_);}
	.st10{fill:url(#SVGID_00000015321648422165215500000016091409543235010489_);}
	.st11{fill:url(#SVGID_00000070811203685540721090000015699827710013630881_);}
</style>
<linearGradient id="SVGID_1_" gradientUnits="userSpaceOnUse" x1="2.4479" y1="310.8815" x2="206.3843" y2="310.8815" gradientTransform="matrix(1 0 0 -1 0 478)">
	<stop  offset="0" style="stop-color:#872675"/>
	<stop  offset="1" style="stop-color:#F05253"/>
</linearGradient>
<path class="st0" d="M106.4,304.8L204.9,165c3.1-3.6,1.1-9.1-3.5-10L117,138.5c-3-0.6-5.1-3.2-5-6.2l2.7-98.6
	c0.2-5.8-7-8.6-10.8-4.3L4,162.8c-3.1,3.5-1.3,9,3.2,10.1l79.3,18.7c2.7,0.6,4.6,3,4.8,5.8L95.6,301
	C95.8,306.6,102.8,309.1,106.4,304.8L106.4,304.8z"/>
<linearGradient id="SVGID_00000134946410650609799950000012998614591228707975_" gradientUnits="userSpaceOnUse" x1="199.5587" y1="1396.5023" x2="325.5241" y2="1396.5023" gradientTransform="matrix(0.8996 0.4366 0.4366 -0.8996 -651.2972 1209.635)">
	<stop  offset="0" style="stop-color:#F8D424"/>
	<stop  offset="1" style="stop-color:#F05253"/>
</linearGradient>
<path style="fill:url(#SVGID_00000134946410650609799950000012998614591228707975_);" d="M243.5,24.1L160,12.6
	c-6.4-0.6-12.1,4.1-12.8,10.4l-9,72.8c-1.1,9.1,5,17.4,13.9,19.2l73.9,12.6c6.5,1.2,12.8-3.2,13.9-9.8l14.2-80
	C255.2,31,250.3,24.7,243.5,24.1L243.5,24.1z"/>
<linearGradient id="SVGID_00000036940458881581616610000001617975120555464595_" gradientUnits="userSpaceOnUse" x1="392.1496" y1="475.7288" x2="504.1166" y2="265.1522" gradientTransform="matrix(1 0 0 -1 0 478)">
	<stop  offset="0" style="stop-color:#872675"/>
	<stop  offset="1" style="stop-color:#F05253"/>
</linearGradient>
<path style="fill:url(#SVGID_00000036940458881581616610000001617975120555464595_);" d="M396.1,72.9c0-10,8-18.2,17.9-18.2h78.3
	l30-51.7H405.6c-33.3,0-60.3,27.5-60.3,61.3v14.9c0,34.8,27.7,63,62,63h48.9c9.6,0,17.4,7.9,17.4,17.7c0,10-8,18.2-17.9,18.2h-32.2
	l-40,51.7h71.6c38.3,0,69.3-31.6,69.3-70.5v-1.5c0-37.2-29.6-67.3-66.1-67.3h-44.7C403.9,90.6,396.1,82.6,396.1,72.9L396.1,72.9z"/>
<linearGradient id="SVGID_00000029042946867576824450000017560224718793009556_" gradientUnits="userSpaceOnUse" x1="524.6719" y1="296.0971" x2="633.6721" y2="359.0329" gradientTransform="matrix(1 0 0 -1 0 478)">
	<stop  offset="0" style="stop-color:#872675"/>
	<stop  offset="1" style="stop-color:#F05253"/>
</linearGradient>
<path style="fill:url(#SVGID_00000029042946867576824450000017560224718793009556_);" d="M552.4,71H606v158.9h-53.6V71z"/>
<linearGradient id="SVGID_00000129183108091644813150000000692184945289263237_" gradientUnits="userSpaceOnUse" x1="706.582" y1="248.14" x2="706.582" y2="475" gradientTransform="matrix(1 0 0 -1 0 478)">
	<stop  offset="0" style="stop-color:#872675"/>
	<stop  offset="1" style="stop-color:#F05253"/>
</linearGradient>
<path style="fill:url(#SVGID_00000129183108091644813150000000692184945289263237_);" d="M703.7,176.2V3h-53.6v226.9h113v-53.6
	L703.7,176.2z"/>
<linearGradient id="SVGID_00000131334330338899196960000017303035710868676766_" gradientUnits="userSpaceOnUse" x1="848.132" y1="249.09" x2="848.132" y2="473.98" gradientTransform="matrix(1 0 0 -1 0 478)">
	<stop  offset="0" style="stop-color:#872675"/>
	<stop  offset="1" style="stop-color:#F05253"/>
</linearGradient>
<path style="fill:url(#SVGID_00000131334330338899196960000017303035710868676766_);" d="M736.8,4v53.6h67.2v171.3h53.6V57.6h70
	l32-53.6L736.8,4z"/>
<linearGradient id="SVGID_00000142872650482235381740000006218656654995579319_" gradientUnits="userSpaceOnUse" x1="547.4453" y1="466.541" x2="610.8787" y2="429.919" gradientTransform="matrix(1 0 0 -1 0 478)">
	<stop  offset="0" style="stop-color:#F8D424"/>
	<stop  offset="1" style="stop-color:#F05253"/>
</linearGradient>
<path style="fill:url(#SVGID_00000142872650482235381740000006218656654995579319_);" d="M552.4,56.6V3H606v53.6H552.4z"/>
<linearGradient id="SVGID_00000098901044824393205380000001119580792642251191_" gradientUnits="userSpaceOnUse" x1="1514.4419" y1="248.95" x2="1514.4419" y2="407.8" gradientTransform="matrix(1 0 0 -1 0 478)">
	<stop  offset="0" style="stop-color:#872675"/>
	<stop  offset="1" style="stop-color:#F05253"/>
</linearGradient>
<path style="fill:url(#SVGID_00000098901044824393205380000001119580792642251191_);" d="M1487.6,70.2h53.6v158.9h-53.6V70.2z"/>
<linearGradient id="SVGID_00000054977729132311281290000013962236339120598443_" gradientUnits="userSpaceOnUse" x1="1482.7253" y1="465.341" x2="1546.1588" y2="428.719" gradientTransform="matrix(1 0 0 -1 0 478)">
	<stop  offset="0" style="stop-color:#F8D424"/>
	<stop  offset="1" style="stop-color:#F05253"/>
</linearGradient>
<path style="fill:url(#SVGID_00000054977729132311281290000013962236339120598443_);" d="M1487.6,57.8V4.2h53.6v53.6H1487.6z"/>
<linearGradient id="SVGID_00000152248359813534498020000014697658855718669723_" gradientUnits="userSpaceOnUse" x1="1013.9168" y1="249.09" x2="1013.9168" y2="473.7" gradientTransform="matrix(1 0 0 -1 0 478)">
	<stop  offset="0" style="stop-color:#872675"/>
	<stop  offset="1" style="stop-color:#F05253"/>
</linearGradient>
<path style="fill:url(#SVGID_00000152248359813534498020000014697658855718669723_);" d="M1014,4.3l-0.1,0.1l-0.1-0.1L884.2,228.9
	h259.5L1014,4.3L1014,4.3z M974.8,179.2l39.1-67.7l39.1,67.7H974.8L974.8,179.2z"/>
<linearGradient id="SVGID_00000020391485879585822120000007559016869903411585_" gradientUnits="userSpaceOnUse" x1="1268.5122" y1="248.28" x2="1268.5122" y2="472.89" gradientTransform="matrix(1 0 0 -1 0 478)">
	<stop  offset="0" style="stop-color:#872675"/>
	<stop  offset="1" style="stop-color:#F05253"/>
</linearGradient>
<path style="fill:url(#SVGID_00000020391485879585822120000007559016869903411585_);" d="M1404.3,5.1l-67.8,117.5L1268.6,5.1
	l-0.1,0.2l-0.1-0.2l-67.8,117.5L1132.7,5.1h-61.9l129.7,224.6l0.1-0.1l0.1,0.1l68.1-116.6l67.7,116.6l0.1-0.1l0.1,0.1L1466.2,5.1
	H1404.3z"/>
<linearGradient id="SVGID_00000038386193455037480330000015609119485458645660_" gradientUnits="userSpaceOnUse" x1="382.8823" y1="1343.6803" x2="473.5487" y2="1343.6803" gradientTransform="matrix(0.8996 0.4366 0.4366 -0.8996 -651.2972 1209.635)">
	<stop  offset="0" style="stop-color:#F8D424"/>
	<stop  offset="1" style="stop-color:#F05253"/>
</linearGradient>
<path style="fill:url(#SVGID_00000038386193455037480330000015609119485458645660_);" d="M399.7,178.2h-55.2l-36,51.7h53.6
	L399.7,178.2z"/>
</svg>
